<mxfile host="app.diagrams.net" agent="Mozilla/5.0 (Windows NT 10.0; Win64; x64) AppleWebKit/537.36 (KHTML, like Gecko) Chrome/135.0.0.0 Safari/537.36" version="26.3.0">
  <diagram name="第 1 页" id="FeC3FEdNrK3RPh4HL6sA">
    <mxGraphModel dx="2397" dy="898" grid="1" gridSize="10" guides="1" tooltips="1" connect="1" arrows="1" fold="1" page="1" pageScale="1" pageWidth="827" pageHeight="1169" math="0" shadow="0">
      <root>
        <mxCell id="0" />
        <mxCell id="1" parent="0" />
        <mxCell id="q_YAzvOc2HX7vB9_molP-3" value="" style="edgeStyle=orthogonalEdgeStyle;rounded=0;orthogonalLoop=1;jettySize=auto;html=1;" edge="1" parent="1" source="q_YAzvOc2HX7vB9_molP-1" target="q_YAzvOc2HX7vB9_molP-2">
          <mxGeometry relative="1" as="geometry" />
        </mxCell>
        <mxCell id="q_YAzvOc2HX7vB9_molP-1" value="&lt;b&gt;&lt;font style=&quot;font-size: 17px;&quot;&gt;start&lt;/font&gt;&lt;/b&gt;" style="ellipse;whiteSpace=wrap;html=1;aspect=fixed;" vertex="1" parent="1">
          <mxGeometry x="160" y="130" width="80" height="80" as="geometry" />
        </mxCell>
        <mxCell id="q_YAzvOc2HX7vB9_molP-7" value="" style="edgeStyle=orthogonalEdgeStyle;rounded=0;orthogonalLoop=1;jettySize=auto;html=1;" edge="1" parent="1" source="q_YAzvOc2HX7vB9_molP-2" target="q_YAzvOc2HX7vB9_molP-6">
          <mxGeometry relative="1" as="geometry" />
        </mxCell>
        <mxCell id="q_YAzvOc2HX7vB9_molP-2" value="拉取日志：&lt;br&gt;1. Navigation日志&lt;div&gt;2. logcat 日志&lt;/div&gt;&lt;div&gt;3. kernel 日志&lt;/div&gt;" style="whiteSpace=wrap;html=1;" vertex="1" parent="1">
          <mxGeometry x="100" y="290" width="200" height="90" as="geometry" />
        </mxCell>
        <mxCell id="q_YAzvOc2HX7vB9_molP-9" value="" style="edgeStyle=orthogonalEdgeStyle;rounded=0;orthogonalLoop=1;jettySize=auto;html=1;" edge="1" parent="1" source="q_YAzvOc2HX7vB9_molP-6" target="q_YAzvOc2HX7vB9_molP-8">
          <mxGeometry relative="1" as="geometry" />
        </mxCell>
        <mxCell id="q_YAzvOc2HX7vB9_molP-11" style="edgeStyle=orthogonalEdgeStyle;rounded=0;orthogonalLoop=1;jettySize=auto;html=1;exitX=0.5;exitY=1;exitDx=0;exitDy=0;entryX=0.5;entryY=0;entryDx=0;entryDy=0;" edge="1" parent="1" source="q_YAzvOc2HX7vB9_molP-6" target="q_YAzvOc2HX7vB9_molP-10">
          <mxGeometry relative="1" as="geometry" />
        </mxCell>
        <mxCell id="q_YAzvOc2HX7vB9_molP-13" style="edgeStyle=orthogonalEdgeStyle;rounded=0;orthogonalLoop=1;jettySize=auto;html=1;exitX=1;exitY=0.5;exitDx=0;exitDy=0;entryX=0.5;entryY=0;entryDx=0;entryDy=0;" edge="1" parent="1" source="q_YAzvOc2HX7vB9_molP-6" target="q_YAzvOc2HX7vB9_molP-12">
          <mxGeometry relative="1" as="geometry" />
        </mxCell>
        <mxCell id="q_YAzvOc2HX7vB9_molP-6" value="查看 Navigation日志" style="whiteSpace=wrap;html=1;" vertex="1" parent="1">
          <mxGeometry x="100" y="470" width="200" height="90" as="geometry" />
        </mxCell>
        <mxCell id="q_YAzvOc2HX7vB9_molP-15" value="" style="edgeStyle=orthogonalEdgeStyle;rounded=0;orthogonalLoop=1;jettySize=auto;html=1;" edge="1" parent="1" source="q_YAzvOc2HX7vB9_molP-8" target="q_YAzvOc2HX7vB9_molP-14">
          <mxGeometry relative="1" as="geometry" />
        </mxCell>
        <mxCell id="q_YAzvOc2HX7vB9_molP-8" value="崩溃" style="whiteSpace=wrap;html=1;" vertex="1" parent="1">
          <mxGeometry x="-430" y="700" width="180" height="60" as="geometry" />
        </mxCell>
        <mxCell id="q_YAzvOc2HX7vB9_molP-10" value="rgbd读流超时" style="whiteSpace=wrap;html=1;" vertex="1" parent="1">
          <mxGeometry x="110" y="710" width="180" height="60" as="geometry" />
        </mxCell>
        <mxCell id="q_YAzvOc2HX7vB9_molP-12" value="rgbd设备打开失败" style="whiteSpace=wrap;html=1;" vertex="1" parent="1">
          <mxGeometry x="410" y="710" width="180" height="60" as="geometry" />
        </mxCell>
        <mxCell id="q_YAzvOc2HX7vB9_molP-14" value="查看崩溃线程tid" style="whiteSpace=wrap;html=1;" vertex="1" parent="1">
          <mxGeometry x="-430" y="840" width="180" height="60" as="geometry" />
        </mxCell>
      </root>
    </mxGraphModel>
  </diagram>
</mxfile>
